<?xml version="1.0" encoding="UTF-8"?>
<!-- Generator: visioncortex VTracer 0.6.3 -->
<svg version="1.1" xmlns="http://www.w3.org/2000/svg" width="144px" height="144px">
<path d="M0 0 C1.91 -0 1.91 -0 3.85 -0.01 C7.36 -0.01 10.86 -0.01 14.37 0 C18.15 0.01 21.94 0 25.73 -0 C33.14 -0.01 40.55 -0 47.96 0.01 C56.59 0.02 65.22 0.02 73.85 0.02 C89.25 0.02 104.64 0.03 120.04 0.04 C134.98 0.06 149.92 0.06 164.86 0.06 C165.78 0.06 166.7 0.06 167.65 0.06 C168.57 0.06 169.49 0.06 170.43 0.06 C187.45 0.06 204.46 0.07 221.47 0.08 C227.49 0.08 233.51 0.08 239.53 0.08 C246.85 0.08 254.18 0.09 261.51 0.09 C265.25 0.1 268.99 0.1 272.73 0.1 C276.78 0.1 280.82 0.11 284.87 0.11 C286.06 0.11 287.25 0.11 288.47 0.11 C289.55 0.11 290.64 0.12 291.75 0.12 C292.68 0.12 293.62 0.12 294.58 0.12 C297.85 0.29 300.43 0.98 303.43 2.25 C306.09 3.36 306.09 3.36 309.18 3.75 C312.06 4.25 312.06 4.25 315.06 6.25 C316.05 6.25 317.04 6.25 318.06 6.25 C320.19 7.31 322.29 8.45 324.37 9.62 C328.54 11.98 332.46 13.87 337.06 15.25 C337.06 15.91 337.06 16.57 337.06 17.25 C339.37 17.91 341.68 18.57 344.06 19.25 C344.15 20.18 344.15 20.18 344.24 21.12 C344.88 23.52 344.88 23.52 347.62 24.5 C348.42 24.74 349.23 24.99 350.06 25.25 C350.06 25.91 350.06 26.57 350.06 27.25 C352.71 28.32 355.34 29.34 358.06 30.25 C358.74 32.31 358.74 32.31 359.06 34.25 C359.72 34.25 360.38 34.25 361.06 34.25 C361.72 35.9 362.38 37.55 363.06 39.25 C363.72 39.25 364.38 39.25 365.06 39.25 C366.34 40.71 366.34 40.71 367.68 42.62 C368.35 43.56 368.35 43.56 369.03 44.52 C370.06 46.25 370.06 46.25 370.06 48.25 C371.05 48.58 372.04 48.91 373.06 49.25 C373.06 49.91 373.06 50.57 373.06 51.25 C373.72 51.25 374.38 51.25 375.06 51.25 C377.39 55.91 379.72 60.58 382.06 65.25 C382.68 66.44 382.68 66.44 383.32 67.67 C383.77 68.54 384.22 69.41 384.68 70.31 C385.32 71.53 385.32 71.53 385.97 72.78 C387.08 75.3 387.57 77.55 388.06 80.25 C388.54 81.79 389.04 83.34 389.56 84.87 C390.96 89.44 391.51 93.75 391.75 98.51 C391.97 101.34 391.97 101.34 393.05 104.26 C394.44 109.05 394.41 113.82 394.47 118.77 C394.5 120.26 394.5 120.26 394.53 121.77 C394.59 124.91 394.63 128.05 394.68 131.18 C394.72 133.32 394.76 135.46 394.8 137.59 C394.89 142.81 394.98 148.03 395.06 153.25 C395.87 153.25 396.68 153.25 397.51 153.26 C417.27 153.34 437.03 153.43 456.78 153.53 C466.34 153.58 475.89 153.63 485.44 153.67 C493.77 153.7 502.1 153.74 510.43 153.79 C514.84 153.82 519.25 153.84 523.66 153.85 C527.81 153.86 531.97 153.89 536.12 153.91 C537.64 153.92 539.16 153.93 540.68 153.93 C548.4 153.94 555.55 154.27 563.06 156.25 C564.05 156.25 565.04 156.25 566.06 156.25 C571.56 157.14 576.78 158.44 582.06 160.25 C583.05 160.25 584.04 160.25 585.06 160.25 C586.73 161.23 588.4 162.24 590.06 163.25 C591.01 163.46 591.01 163.46 591.99 163.68 C595.09 164.53 597.4 166.46 600.06 168.25 C601.71 168.95 603.37 169.63 605.06 170.25 C608.46 171.69 610.46 173.65 613.06 176.25 C613.72 176.25 614.38 176.25 615.06 176.25 C615.06 176.91 615.06 177.57 615.06 178.25 C616.05 178.25 617.04 178.25 618.06 178.25 C619.26 179.36 620.46 180.48 621.58 181.68 C623.86 184.11 626.3 186.39 628.7 188.7 C630.06 190.25 630.06 190.25 630.06 192.25 C631.01 192.65 631.01 192.65 631.99 193.06 C634.06 194.25 634.06 194.25 635.06 197.25 C635.72 197.25 636.38 197.25 637.06 197.25 C640.06 201.63 640.06 201.63 640.06 204.25 C640.72 204.58 641.38 204.91 642.06 205.25 C642.06 206.24 642.06 207.23 642.06 208.25 C642.72 208.25 643.38 208.25 644.06 208.25 C645.34 209.86 645.34 209.86 646.68 212 C647.35 213.04 647.35 213.04 648.03 214.11 C649.06 216.25 649.06 216.25 649.06 220.25 C649.72 220.25 650.38 220.25 651.06 220.25 C653.43 225.92 655.63 231.58 657.28 237.51 C657.78 239.27 658.3 241.02 658.84 242.76 C661.23 251.04 661.49 258.85 661.39 267.39 C661.37 269.68 661.37 271.96 661.38 274.25 C661.34 296.83 661.34 296.83 657.06 303.25 C656.41 305.46 655.81 307.7 655.24 309.93 C653.82 315.11 652.23 319.24 649.16 323.63 C647.74 325.7 646.87 327.88 646.06 330.25 C645.4 330.25 644.74 330.25 644.06 330.25 C643.97 330.97 643.89 331.69 643.81 332.43 C642.89 335.86 641.35 337.56 639.06 340.25 C638.35 341.34 637.65 342.43 636.93 343.56 C636 344.89 636 344.89 635.06 346.25 C634.4 346.25 633.74 346.25 633.06 346.25 C632.85 346.78 632.64 347.32 632.43 347.87 C630.52 351.17 628.01 353.84 625.06 356.25 C624.4 356.25 623.74 356.25 623.06 356.25 C623.06 356.91 623.06 357.57 623.06 358.25 C618.66 362.33 613.42 365.31 608.13 368.07 C606.01 369.21 606.01 369.21 604.07 370.74 C597.6 375.59 590.49 377.89 582.62 379.38 C579.46 380.45 578.75 381.41 577.06 384.25 C576.61 386.79 576.61 386.79 576.68 389.59 C576.67 390.68 576.66 391.77 576.66 392.9 C576.66 394.1 576.67 395.3 576.68 396.54 C576.67 398.46 576.67 398.46 576.66 400.42 C576.65 403.99 576.66 407.57 576.67 411.14 C576.67 415.02 576.66 418.9 576.65 422.78 C576.64 429.59 576.64 436.39 576.65 443.2 C576.66 453.32 576.65 463.44 576.64 473.57 C576.62 490.59 576.61 507.62 576.61 524.65 C576.62 541.53 576.61 558.4 576.6 575.27 C576.6 576.85 576.6 576.85 576.59 578.45 C576.59 583.78 576.58 589.1 576.58 594.43 C576.57 605.26 576.56 616.09 576.55 626.93 C576.55 628.01 576.55 629.09 576.55 630.21 C576.53 656.04 576.52 681.86 576.51 707.69 C576.51 708.82 576.51 709.95 576.51 711.11 C576.51 720.27 576.5 729.43 576.5 738.58 C576.49 764.93 576.48 791.28 576.47 817.63 C576.47 819.33 576.47 819.33 576.47 821.05 C576.46 846.81 576.44 872.58 576.42 898.34 C576.42 899.96 576.42 899.96 576.42 901.62 C576.41 912.43 576.4 923.24 576.39 934.06 C576.37 957.29 576.36 980.52 576.36 1003.75 C576.36 1020.69 576.35 1037.63 576.34 1054.57 C576.33 1064.63 576.33 1074.69 576.33 1084.76 C576.34 1091.48 576.33 1098.21 576.32 1104.93 C576.32 1108.76 576.31 1112.59 576.32 1116.42 C576.33 1120.56 576.32 1124.69 576.31 1128.82 C576.31 1130 576.32 1131.18 576.32 1132.4 C576.23 1151.53 576.23 1151.53 572.06 1159.25 C571.73 1160.84 571.47 1162.45 571.24 1164.06 C569.09 1176.82 563.89 1188.78 558.06 1200.25 C557.4 1200.25 556.74 1200.25 556.06 1200.25 C555.96 1200.95 555.86 1201.65 555.76 1202.37 C554.93 1205.76 553.53 1208.25 551.74 1211.25 C551.15 1212.26 550.55 1213.27 549.94 1214.31 C548.13 1217.13 546.29 1219.74 544.06 1222.25 C543.4 1222.25 542.74 1222.25 542.06 1222.25 C541.79 1222.99 541.52 1223.73 541.24 1224.5 C540.1 1227.14 538.96 1229.1 537.06 1231.25 C536.4 1231.25 535.74 1231.25 535.06 1231.25 C534.85 1231.78 534.64 1232.32 534.43 1232.87 C532.52 1236.17 530.01 1238.84 527.06 1241.25 C526.4 1241.25 525.74 1241.25 525.06 1241.25 C525.06 1241.91 525.06 1242.57 525.06 1243.25 C524.4 1243.25 523.74 1243.25 523.06 1243.25 C522.73 1244.24 522.4 1245.23 522.06 1246.25 C521.31 1246.54 520.57 1246.82 519.81 1247.12 C516.98 1248.28 515.73 1249.58 513.69 1251.76 C501.08 1263.25 481.13 1272.14 464.64 1275.68 C461.62 1276.34 458.62 1277.07 455.62 1277.81 C454.61 1278.06 453.6 1278.31 452.56 1278.56 C450.08 1279.15 450.08 1279.15 448.06 1280.25 C446.67 1280.34 445.27 1280.37 443.88 1280.37 C443 1280.38 442.12 1280.38 441.21 1280.38 C440.23 1280.38 439.25 1280.38 438.24 1280.38 C436.69 1280.38 436.69 1280.38 435.1 1280.38 C431.59 1280.39 428.08 1280.38 424.56 1280.38 C422.04 1280.38 419.51 1280.39 416.98 1280.39 C411.46 1280.39 405.94 1280.39 400.43 1280.39 C392.22 1280.39 384.02 1280.4 375.81 1280.4 C360.31 1280.41 344.81 1280.41 329.3 1280.41 C317.33 1280.41 305.36 1280.42 293.4 1280.42 C289.95 1280.42 286.51 1280.42 283.07 1280.42 C281.79 1280.42 281.79 1280.42 280.48 1280.42 C256.41 1280.43 232.34 1280.43 208.27 1280.43 C206.91 1280.43 206.91 1280.43 205.52 1280.43 C200.92 1280.43 196.31 1280.43 191.71 1280.43 C190.8 1280.43 189.88 1280.43 188.94 1280.43 C187.09 1280.43 185.24 1280.43 183.39 1280.43 C154.62 1280.43 125.85 1280.44 97.07 1280.45 C64.77 1280.47 32.47 1280.48 0.17 1280.48 C-3.27 1280.48 -6.71 1280.48 -10.15 1280.48 C-11 1280.48 -11.84 1280.48 -12.72 1280.48 C-26.38 1280.48 -40.04 1280.48 -53.7 1280.49 C-67.42 1280.5 -81.14 1280.5 -94.87 1280.49 C-103.03 1280.49 -111.19 1280.49 -119.35 1280.5 C-125.42 1280.51 -131.5 1280.5 -137.58 1280.5 C-140.05 1280.5 -142.52 1280.5 -144.99 1280.5 C-148.33 1280.51 -151.67 1280.5 -155.01 1280.5 C-155.98 1280.5 -156.96 1280.51 -157.96 1280.51 C-158.85 1280.51 -159.73 1280.5 -160.64 1280.5 C-161.79 1280.5 -161.79 1280.5 -162.96 1280.5 C-164.94 1280.25 -164.94 1280.25 -167.94 1278.25 C-169.89 1277.82 -171.85 1277.48 -173.82 1277.18 C-184.46 1275.57 -184.46 1275.57 -187.94 1273.25 C-189.87 1272.65 -191.81 1272.09 -193.76 1271.56 C-201.31 1269.32 -208.02 1265.94 -214.94 1262.25 C-214.94 1261.59 -214.94 1260.93 -214.94 1260.25 C-216.26 1260.25 -217.58 1260.25 -218.94 1260.25 C-219.27 1259.59 -219.6 1258.93 -219.94 1258.25 C-221.93 1257.21 -223.93 1256.22 -225.94 1255.25 C-229.06 1253.51 -231.49 1251.82 -233.94 1249.25 C-234.6 1248.92 -235.26 1248.59 -235.94 1248.25 C-235.94 1247.59 -235.94 1246.93 -235.94 1246.25 C-236.53 1245.98 -237.12 1245.7 -237.73 1245.42 C-243.21 1242.51 -247.65 1237.65 -251.94 1233.25 C-252.79 1232.48 -253.64 1231.72 -254.51 1230.93 C-257.1 1228.07 -258.46 1225.44 -259.95 1221.92 C-260.91 1219.9 -260.91 1219.9 -263.94 1219.25 C-265.13 1216.18 -265.13 1216.18 -265.94 1213.25 C-266.6 1213.25 -267.26 1213.25 -267.94 1213.25 C-268.17 1212.61 -268.4 1211.97 -268.63 1211.31 C-269.71 1208.8 -270.86 1206.55 -272.19 1204.18 C-277.09 1195.48 -281.48 1186.62 -284.94 1177.25 C-285.2 1176.59 -285.45 1175.93 -285.71 1175.26 C-289.43 1165.03 -291.42 1153.99 -292.94 1143.25 C-293.44 1141.76 -293.44 1141.76 -293.94 1140.25 C-294.04 1138.5 -294.07 1136.75 -294.08 1135.01 C-294.08 1133.91 -294.08 1132.82 -294.09 1131.69 C-294.09 1130.48 -294.08 1129.27 -294.08 1128.02 C-294.09 1126.74 -294.09 1125.45 -294.09 1124.13 C-294.1 1120.54 -294.1 1116.95 -294.1 1113.36 C-294.1 1109.47 -294.11 1105.57 -294.12 1101.67 C-294.13 1094.84 -294.14 1088 -294.14 1081.16 C-294.15 1071 -294.16 1060.83 -294.18 1050.66 C-294.2 1033.56 -294.22 1016.47 -294.24 999.37 C-294.25 982.43 -294.27 965.49 -294.29 948.56 C-294.29 947.5 -294.29 946.45 -294.3 945.37 C-294.3 940.03 -294.31 934.68 -294.32 929.34 C-294.36 891.47 -294.41 853.61 -294.45 815.74 C-294.49 778.95 -294.53 742.16 -294.57 705.36 C-294.57 703.66 -294.57 703.66 -294.58 701.93 C-294.59 690.54 -294.6 679.16 -294.62 667.78 C-294.65 644.58 -294.67 621.39 -294.7 598.2 C-294.7 597.14 -294.7 596.07 -294.7 594.97 C-294.79 523.73 -294.87 452.49 -294.94 381.25 C-295.54 381.11 -296.14 380.96 -296.75 380.82 C-299.77 380.03 -302.6 378.88 -305.51 377.75 C-308.64 376.52 -311.75 375.31 -314.94 374.25 C-314.94 373.59 -314.94 372.93 -314.94 372.25 C-315.67 372.14 -316.39 372.04 -317.13 371.93 C-320.23 371.18 -322.32 370.01 -325.01 368.31 C-327.94 366.47 -330.82 364.74 -333.94 363.25 C-333.94 362.59 -333.94 361.93 -333.94 361.25 C-335.59 360.59 -337.24 359.93 -338.94 359.25 C-338.94 358.59 -338.94 357.93 -338.94 357.25 C-339.6 357.25 -340.26 357.25 -340.94 357.25 C-342.72 355.64 -344.32 354 -345.94 352.25 C-346.7 351.45 -347.46 350.65 -348.24 349.83 C-349.05 348.96 -349.86 348.08 -350.69 347.18 C-351.86 345.93 -351.86 345.93 -353.05 344.65 C-354.84 342.38 -355.55 341.06 -355.94 338.25 C-356.6 338.25 -357.26 338.25 -357.94 338.25 C-358.23 337.63 -358.52 337.01 -358.82 336.37 C-359.88 334.11 -359.88 334.11 -361.94 332.25 C-362.25 331.46 -362.56 330.68 -362.88 329.87 C-363.82 327.22 -363.82 327.22 -365.51 325.18 C-366.94 323.25 -366.94 323.25 -367.38 321.44 C-368.06 318.81 -369.18 316.65 -370.44 314.25 C-372.02 311.23 -373.22 308.56 -373.94 305.25 C-374.44 303.62 -374.94 302 -375.44 300.37 C-376.57 296.67 -377.38 293.08 -377.94 289.25 C-378.44 287.76 -378.44 287.76 -378.94 286.25 C-379.03 283.44 -379.06 280.66 -379.04 277.86 C-379.04 276.64 -379.04 276.64 -379.04 275.38 C-379.03 272.78 -379.02 270.17 -379.01 267.56 C-379 265.79 -379 264.02 -378.99 262.25 C-378.98 257.92 -378.96 253.58 -378.94 249.25 C-378.28 248.92 -377.62 248.59 -376.94 248.25 C-376.51 246.19 -376.51 246.19 -376.38 243.81 C-376.04 239.43 -376.04 239.43 -374.94 237.25 C-374.64 236.15 -374.33 235.06 -374.01 233.93 C-372.72 229.46 -371.08 225.38 -368.94 221.25 C-368.66 220.65 -368.37 220.05 -368.07 219.43 C-364.79 213.07 -360.96 207.17 -356.94 201.25 C-356.28 200.26 -355.62 199.27 -354.94 198.25 C-353.97 197.23 -352.96 196.23 -351.94 195.25 C-349.98 193.34 -348.14 191.51 -346.51 189.31 C-344.54 186.72 -342.24 184.55 -339.94 182.25 C-339.28 181.26 -338.62 180.27 -337.94 179.25 C-336.28 178.57 -334.62 177.9 -332.94 177.25 C-331.93 176.27 -330.92 175.27 -329.94 174.25 C-329.28 174.25 -328.62 174.25 -327.94 174.25 C-327.94 173.59 -327.94 172.93 -327.94 172.25 C-324.63 170.83 -321.5 169.86 -317.94 169.25 C-317.94 168.59 -317.94 167.93 -317.94 167.25 C-314.63 165.83 -311.5 164.86 -307.94 164.25 C-307.94 163.59 -307.94 162.93 -307.94 162.25 C-306.24 162.06 -306.24 162.06 -304.51 161.87 C-303.33 161.67 -302.16 161.46 -300.94 161.25 C-300.61 160.59 -300.28 159.93 -299.94 159.25 C-297.88 158.83 -297.88 158.83 -295.38 158.62 C-294.14 158.51 -294.14 158.51 -292.88 158.4 C-292.24 158.35 -291.6 158.3 -290.94 158.25 C-290.94 157.92 -290.94 157.59 -290.94 157.25 C-289.59 157.17 -289.59 157.17 -288.21 157.1 C-287.03 157.02 -285.85 156.95 -284.63 156.87 C-282.87 156.77 -282.87 156.77 -281.08 156.66 C-277.79 156.46 -277.79 156.46 -274.94 154.25 C-272.01 154 -272.01 154 -268.36 154.01 C-267.69 154.01 -267.01 154 -266.32 154 C-264.06 154 -261.81 154.01 -259.55 154.02 C-257.93 154.02 -256.32 154.02 -254.7 154.02 C-250.31 154.02 -245.92 154.03 -241.52 154.04 C-236.94 154.06 -232.35 154.06 -227.76 154.06 C-219.07 154.07 -210.38 154.08 -201.69 154.1 C-191.79 154.13 -181.9 154.14 -172.01 154.15 C-151.65 154.17 -131.3 154.2 -110.94 154.25 C-110.94 136.76 -110.94 119.27 -110.94 101.25 C-110.61 101.25 -110.28 101.25 -109.94 101.25 C-109.61 96.96 -109.28 92.67 -108.94 88.25 C-108.28 88.25 -107.62 88.25 -106.94 88.25 C-106.9 87.57 -106.85 86.9 -106.8 86.2 C-106.72 85.31 -106.65 84.42 -106.57 83.5 C-106.5 82.62 -106.43 81.73 -106.36 80.83 C-105.94 78.23 -105.23 76.51 -103.94 74.25 C-103.61 73.59 -103.28 72.93 -102.94 72.25 C-102.61 72.25 -102.28 72.25 -101.94 72.25 C-101.64 71.15 -101.33 70.06 -101.01 68.93 C-99.13 62.44 -99.13 62.44 -96.94 60.25 C-96.61 59.26 -96.28 58.27 -95.94 57.25 C-95.28 56.59 -94.62 55.93 -93.94 55.25 C-93.66 54.63 -93.37 54.01 -93.07 53.37 C-91.72 50.82 -90.12 49.15 -87.94 47.25 C-87.28 47.25 -86.62 47.25 -85.94 47.25 C-85.68 46.15 -85.41 45.06 -85.13 43.93 C-83.58 39.11 -83.58 39.11 -80.94 37.25 C-80.28 37.25 -79.62 37.25 -78.94 37.25 C-78.94 35.6 -78.94 33.95 -78.94 32.25 C-78.28 32.58 -77.62 32.91 -76.94 33.25 C-76.24 32.48 -75.54 31.72 -74.82 30.93 C-71.95 28.25 -69.43 26.99 -65.94 25.25 C-64.24 23.62 -62.57 21.96 -60.94 20.25 C-58.32 17.87 -58.32 17.87 -55.94 16.25 C-54.95 16.58 -53.96 16.91 -52.94 17.25 C-52.61 16.26 -52.28 15.27 -51.94 14.25 C-50.27 13.46 -48.59 12.68 -46.87 12.01 C-44.14 10.93 -41.55 9.58 -38.94 8.25 C-38.94 7.92 -38.94 7.59 -38.94 7.25 C-36.3 6.59 -33.66 5.93 -30.94 5.25 C-30.94 4.92 -30.94 4.59 -30.94 4.25 C-25.19 3.12 -25.19 3.12 -22.94 4.25 C-22.94 3.59 -22.94 2.93 -22.94 2.25 C-15.24 0.34 -7.92 -0.03 0 0 Z M3.92 60.78 C0.76 61.57 -2.44 61.69 -5.68 61.9 C-8.13 62.28 -9.79 63.06 -11.94 64.25 C-13.15 64.71 -13.15 64.71 -14.38 65.18 C-17.1 66.31 -19.44 67.72 -21.94 69.25 C-22.89 69.64 -23.84 70.03 -24.82 70.43 C-28.51 72.57 -30.66 75.08 -33.35 78.34 C-34.94 80.25 -34.94 80.25 -37.07 82.18 C-39.55 84.92 -41.1 87.96 -42.8 91.22 C-43.94 93.25 -43.94 93.25 -45.94 95.25 C-46.59 97.64 -46.59 97.64 -47.01 100.31 C-47.85 105.15 -47.85 105.15 -48.94 106.25 C-49.04 107.72 -49.07 109.19 -49.07 110.66 C-49.08 111.6 -49.08 112.53 -49.08 113.5 C-49.08 114.52 -49.08 115.54 -49.08 116.59 C-49.08 117.63 -49.08 118.67 -49.08 119.74 C-49.08 121.94 -49.08 124.15 -49.07 126.35 C-49.07 129.73 -49.07 133.12 -49.08 136.5 C-49.08 138.64 -49.08 140.77 -49.08 142.9 C-49.08 143.92 -49.08 144.94 -49.08 145.99 C-49.08 146.93 -49.08 147.87 -49.07 148.84 C-49.07 149.66 -49.07 150.49 -49.07 151.35 C-49.15 153.26 -49.15 153.26 -47.94 154.25 C-45.93 154.35 -43.92 154.37 -41.9 154.37 C-40.94 154.37 -40.94 154.37 -39.96 154.37 C-37.79 154.38 -35.61 154.37 -33.44 154.37 C-31.87 154.37 -30.31 154.37 -28.74 154.37 C-24.42 154.37 -20.11 154.37 -15.79 154.36 C-11.14 154.36 -6.49 154.36 -1.84 154.36 C6.23 154.36 14.29 154.36 22.35 154.35 C34.01 154.34 45.67 154.34 57.32 154.34 C76.23 154.34 95.15 154.33 114.06 154.32 C132.43 154.31 150.81 154.31 169.18 154.3 C170.32 154.3 171.45 154.3 172.61 154.3 C178.29 154.3 183.97 154.3 189.65 154.3 C236.78 154.29 283.92 154.27 331.06 154.25 C331.13 147.08 331.18 139.9 331.22 132.73 C331.24 130.29 331.26 127.85 331.28 125.41 C331.32 121.91 331.34 118.4 331.35 114.89 C331.36 113.8 331.38 112.71 331.4 111.59 C331.42 104.44 331.42 104.44 328.06 98.25 C327.72 96.25 327.39 94.25 327.06 92.25 C325.26 88.55 325.26 88.55 322.06 86.25 C321.22 84.67 321.22 84.67 320.37 83.06 C318.09 78.9 314.99 75.89 311.06 73.25 C310.4 73.25 309.74 73.25 309.06 73.25 C309.06 72.59 309.06 71.93 309.06 71.25 C298.88 65.06 290.35 61.19 278.37 60.47 C275.06 60.25 275.06 60.25 273.06 59.25 C271.62 59.15 270.18 59.12 268.74 59.12 C267.38 59.11 267.38 59.11 265.98 59.11 C264.97 59.11 263.97 59.11 262.93 59.11 C261.86 59.11 260.8 59.11 259.7 59.11 C256.11 59.1 252.51 59.1 248.92 59.1 C246.35 59.1 243.79 59.1 241.22 59.09 C234.96 59.08 228.69 59.08 222.43 59.08 C217.33 59.08 212.24 59.08 207.14 59.07 C192.7 59.07 178.26 59.06 163.82 59.06 C162.65 59.06 162.65 59.06 161.46 59.06 C160.29 59.06 160.29 59.06 159.1 59.06 C146.47 59.06 133.84 59.05 121.21 59.04 C108.24 59.02 95.27 59.02 82.31 59.02 C75.03 59.02 67.75 59.02 60.47 59.01 C53.62 59 46.77 59 39.91 59 C37.4 59 34.89 59 32.37 59 C28.94 58.99 25.51 58.99 22.07 59 C20.58 58.99 20.58 58.99 19.07 58.98 C13.8 59.01 9.03 59.48 3.92 60.78 Z M-33.94 73.25 C-33.94 74.24 -33.94 75.23 -33.94 76.25 C-33.28 75.59 -32.62 74.93 -31.94 74.25 C-32.6 73.92 -33.26 73.59 -33.94 73.25 Z M-45.94 89.25 C-45.94 90.24 -45.94 91.23 -45.94 92.25 C-44.95 91.92 -43.96 91.59 -42.94 91.25 C-42.94 90.59 -42.94 89.93 -42.94 89.25 C-43.93 89.25 -44.92 89.25 -45.94 89.25 Z M391.06 104.25 C390.73 104.91 390.4 105.57 390.06 106.25 C390.72 106.25 391.38 106.25 392.06 106.25 C391.73 105.59 391.4 104.93 391.06 104.25 Z M-279.94 219.25 C-280.67 219.55 -281.4 219.86 -282.16 220.18 C-286.94 222.27 -291.45 224.57 -295.94 227.25 C-295.94 226.59 -295.94 225.93 -295.94 225.25 C-296.93 225.25 -297.92 225.25 -298.94 225.25 C-298.94 225.91 -298.94 226.57 -298.94 227.25 C-299.6 227.25 -300.26 227.25 -300.94 227.25 C-300.72 227.85 -300.49 228.44 -300.26 229.06 C-300.1 230.14 -300.1 230.14 -299.94 231.25 C-301.38 232.87 -301.38 232.87 -302.94 234.25 C-302.94 234.91 -302.94 235.57 -302.94 236.25 C-303.6 236.25 -304.26 236.25 -304.94 236.25 C-316.23 249.6 -317.3 265.53 -315.94 282.25 C-314.63 289.33 -311.47 294.75 -306.94 300.25 C-306.14 301.47 -305.35 302.7 -304.57 303.93 C-302.16 307.41 -299.97 308 -295.94 309.25 C-295.24 310.9 -294.57 312.57 -293.94 314.25 C-291.44 315.47 -291.44 315.47 -288.94 316.25 C-288.45 317.24 -288.45 317.24 -287.94 318.25 C-286.09 318.76 -284.23 319.27 -282.34 319.68 C-279.94 320.25 -279.94 320.25 -277.16 321.27 C-271.29 322.94 -265.15 322.52 -259.1 322.5 C-257.67 322.5 -256.25 322.5 -254.82 322.51 C-250.9 322.52 -246.97 322.51 -243.04 322.5 C-238.78 322.5 -234.51 322.51 -230.24 322.51 C-222.75 322.52 -215.27 322.52 -207.79 322.51 C-196.66 322.51 -185.53 322.51 -174.4 322.51 C-154.53 322.53 -134.66 322.52 -114.79 322.52 C-97.4 322.51 -80.01 322.51 -62.62 322.51 C-61.47 322.52 -60.32 322.52 -59.13 322.52 C-54.45 322.52 -49.77 322.52 -45.1 322.52 C-1.2 322.52 42.7 322.52 86.59 322.51 C125.62 322.5 164.64 322.5 203.67 322.51 C247.49 322.52 291.31 322.52 335.13 322.52 C339.8 322.52 344.46 322.52 349.13 322.51 C350.28 322.51 351.43 322.51 352.62 322.51 C370 322.51 387.38 322.51 404.76 322.52 C424.52 322.53 444.28 322.52 464.03 322.51 C475.1 322.51 486.16 322.51 497.23 322.51 C504.61 322.52 511.99 322.52 519.37 322.51 C523.58 322.5 527.8 322.5 532.01 322.51 C535.84 322.51 539.66 322.51 543.49 322.5 C544.87 322.5 546.25 322.5 547.63 322.51 C549.5 322.51 551.37 322.51 553.23 322.5 C554.79 322.5 554.79 322.5 556.37 322.5 C559.12 322.24 560.68 321.59 563.06 320.25 C563.86 320.12 564.66 320 565.49 319.87 C568.77 319.07 570.5 317.41 573.06 315.25 C573.7 314.93 574.35 314.62 575.01 314.3 C577.15 313.2 578.52 312.04 580.22 310.35 C580.78 309.79 581.35 309.22 581.93 308.65 C582.51 308.06 583.09 307.48 583.68 306.87 C584.56 306.01 584.56 306.01 585.45 305.12 C586.3 304.28 586.3 304.28 587.16 303.41 C587.92 302.64 587.92 302.64 588.7 301.86 C590.18 300.1 591.05 298.31 592.06 296.25 C592.72 295.59 593.38 294.93 594.06 294.25 C594.06 292.93 594.06 291.61 594.06 290.25 C594.72 290.25 595.38 290.25 596.06 290.25 C596.18 289.3 596.3 288.35 596.43 287.37 C597.06 284.25 597.06 284.25 599.06 282.25 C599.51 278.58 599.38 274.88 599.37 271.18 C599.38 270.17 599.4 269.16 599.42 268.12 C599.42 262.31 598.86 257.5 596.74 252.07 C596.06 250.25 596.06 250.25 595.62 247.43 C594.86 244.47 593.29 243.28 591.06 241.25 C590.25 240.13 590.25 240.13 589.43 239 C588.98 238.42 588.52 237.84 588.06 237.25 C587.4 237.25 586.74 237.25 586.06 237.25 C585.85 236.34 585.64 235.43 585.43 234.5 C583.72 230.46 581.85 229.31 578.06 227.25 C577.4 227.25 576.74 227.25 576.06 227.25 C575.73 226.26 575.4 225.27 575.06 224.25 C574.07 224.25 573.08 224.25 572.06 224.25 C572.06 223.59 572.06 222.93 572.06 222.25 C562.88 217.32 555.47 216.96 545.18 217 C543.75 216.99 542.33 216.99 540.9 216.99 C536.96 216.98 533.03 216.98 529.09 216.99 C524.81 217 520.54 216.99 516.26 216.98 C508.76 216.98 501.26 216.98 493.76 216.98 C482.6 216.99 471.45 216.99 460.3 216.98 C440.38 216.97 420.47 216.97 400.55 216.98 C383.12 216.98 365.69 216.98 348.27 216.98 C347.11 216.98 345.96 216.98 344.77 216.98 C340.08 216.98 335.39 216.98 330.7 216.98 C286.7 216.97 242.71 216.98 198.71 216.99 C159.6 217 120.48 217 81.37 216.99 C37.45 216.98 -6.47 216.97 -50.39 216.98 C-55.06 216.98 -59.74 216.98 -64.42 216.98 C-66.15 216.98 -66.15 216.98 -67.91 216.98 C-85.33 216.98 -102.76 216.98 -120.18 216.97 C-139.98 216.97 -159.78 216.97 -179.58 216.98 C-190.67 216.99 -201.76 216.99 -212.85 216.98 C-220.25 216.98 -227.65 216.98 -235.05 216.99 C-239.27 216.99 -243.49 216.99 -247.71 216.99 C-251.55 216.98 -255.38 216.98 -259.22 216.99 C-260.6 216.99 -261.98 216.99 -263.37 216.99 C-265.24 216.98 -267.11 216.99 -268.98 217 C-270.02 217 -271.06 217 -272.13 217 C-275.1 217.26 -277.25 218.01 -279.94 219.25 Z M646.06 319.25 C647.54 320.24 647.54 320.24 649.06 321.25 C649.06 320.59 649.06 319.93 649.06 319.25 C648.07 319.25 647.08 319.25 646.06 319.25 Z M641.06 332.25 C642.06 334.25 642.06 334.25 642.06 334.25 Z M634.06 339.25 C634.39 340.24 634.72 341.23 635.06 342.25 C635.72 341.92 636.38 341.59 637.06 341.25 C637.06 340.59 637.06 339.93 637.06 339.25 C636.07 339.25 635.08 339.25 634.06 339.25 Z M631.06 342.25 C631.39 343.24 631.72 344.23 632.06 345.25 C632.72 344.59 633.38 343.93 634.06 343.25 C633.07 342.92 632.08 342.59 631.06 342.25 Z M630.06 344.25 C631.06 346.25 631.06 346.25 631.06 346.25 Z M601.06 367.25 C601.06 368.24 601.06 369.23 601.06 370.25 C601.72 369.92 602.38 369.59 603.06 369.25 C602.4 368.59 601.74 367.93 601.06 367.25 Z M-233.94 386.25 C-234.25 388.51 -234.25 388.51 -234.2 391.18 C-234.2 392.23 -234.21 393.28 -234.21 394.37 C-234.21 395.53 -234.2 396.7 -234.2 397.9 C-234.2 399.14 -234.2 400.37 -234.2 401.65 C-234.21 405.1 -234.21 408.56 -234.2 412.02 C-234.2 415.77 -234.2 419.52 -234.21 423.27 C-234.22 429.85 -234.21 436.43 -234.21 443.02 C-234.2 452.81 -234.21 462.59 -234.21 472.38 C-234.22 489.86 -234.22 507.34 -234.22 524.82 C-234.21 540.12 -234.21 555.42 -234.21 570.72 C-234.21 571.74 -234.21 572.75 -234.21 573.79 C-234.21 577.91 -234.21 582.02 -234.21 586.14 C-234.22 624.76 -234.22 663.39 -234.2 702.01 C-234.19 736.35 -234.2 770.68 -234.21 805.01 C-234.22 843.55 -234.22 882.1 -234.21 920.64 C-234.21 924.75 -234.21 928.86 -234.21 932.97 C-234.21 933.98 -234.21 934.99 -234.21 936.03 C-234.21 951.32 -234.21 966.61 -234.22 981.9 C-234.22 999.28 -234.22 1016.67 -234.21 1034.05 C-234.2 1043.79 -234.2 1053.52 -234.21 1063.26 C-234.22 1069.76 -234.21 1076.25 -234.2 1082.75 C-234.2 1086.46 -234.2 1090.16 -234.21 1093.87 C-234.21 1097.86 -234.21 1101.85 -234.2 1105.84 C-234.2 1106.99 -234.21 1108.14 -234.21 1109.33 C-234.18 1115.36 -233.62 1120.46 -231.94 1126.25 C-231.58 1129.66 -231.49 1133.08 -231.38 1136.51 C-231.2 1140.55 -230.56 1143.57 -228.94 1147.25 C-228.37 1149.51 -227.83 1151.78 -227.32 1154.06 C-227.06 1155.22 -226.8 1156.38 -226.53 1157.58 C-226.34 1158.46 -226.14 1159.34 -225.94 1160.25 C-225.28 1160.25 -224.62 1160.25 -223.94 1160.25 C-223.82 1160.97 -223.7 1161.69 -223.57 1162.43 C-222.95 1165.2 -222.06 1167.64 -220.94 1170.25 C-220.28 1170.25 -219.62 1170.25 -218.94 1170.25 C-218.7 1171.09 -218.45 1171.94 -218.19 1172.81 C-215.85 1179.25 -212.94 1183.61 -207.94 1188.25 C-202.94 1193.25 -202.94 1193.25 -201.37 1194.9 C-199.93 1196.38 -198.44 1197.82 -196.94 1199.25 C-196.28 1199.25 -195.62 1199.25 -194.94 1199.25 C-194.64 1200.18 -194.64 1200.18 -194.32 1201.12 C-192.4 1204.08 -190.24 1204.22 -186.94 1205.25 C-186.28 1206.24 -185.62 1207.23 -184.94 1208.25 C-179.93 1211.12 -174.47 1212.68 -168.94 1214.25 C-167.87 1214.8 -166.8 1215.36 -165.69 1215.93 C-162.95 1217.63 -162.95 1217.63 -159.94 1216.25 C-159.61 1216.58 -159.28 1216.91 -158.94 1217.25 C-151.83 1219 -144.85 1219.54 -137.55 1219.49 C-136.06 1219.5 -136.06 1219.5 -134.55 1219.5 C-131.25 1219.51 -127.94 1219.5 -124.64 1219.49 C-122.24 1219.49 -119.85 1219.49 -117.45 1219.49 C-112.24 1219.5 -107.04 1219.49 -101.83 1219.49 C-94.09 1219.47 -86.35 1219.47 -78.61 1219.47 C-65.59 1219.48 -52.57 1219.47 -39.55 1219.46 C-26.66 1219.45 -13.78 1219.44 -0.89 1219.44 C-0.09 1219.44 0.72 1219.44 1.54 1219.44 C5.62 1219.44 9.69 1219.44 13.76 1219.43 C42.59 1219.43 71.43 1219.42 100.26 1219.4 C128.27 1219.38 156.28 1219.37 184.28 1219.36 C185.15 1219.36 186.01 1219.36 186.9 1219.36 C195.57 1219.35 204.25 1219.35 212.92 1219.35 C230.59 1219.34 248.25 1219.34 265.92 1219.33 C266.73 1219.33 267.55 1219.33 268.38 1219.33 C322.61 1219.31 376.83 1219.28 431.06 1219.25 C431.06 1218.92 431.06 1218.59 431.06 1218.25 C432.08 1218.21 433.11 1218.17 434.16 1218.13 C435.52 1218.07 436.88 1218 438.24 1217.93 C439.25 1217.9 439.25 1217.9 440.28 1217.87 C444.7 1217.63 447.45 1216.77 451.06 1214.25 C452.93 1213.68 452.93 1213.68 455.06 1213.25 C458.68 1212.51 458.68 1212.51 462.06 1211.25 C462.39 1210.59 462.72 1209.93 463.06 1209.25 C463.39 1208.59 463.72 1207.93 464.06 1207.25 C466.37 1206.53 468.71 1205.87 471.06 1205.25 C474.33 1203.35 476.88 1201.43 479.56 1198.75 C482.06 1196.25 482.06 1196.25 485.18 1194.18 C487.88 1192.36 489.43 1191.04 491.06 1188.25 C491.06 1187.26 491.06 1186.27 491.06 1185.25 C492.05 1184.92 493.04 1184.59 494.06 1184.25 C494.06 1182.93 494.06 1181.61 494.06 1180.25 C494.72 1180.25 495.38 1180.25 496.06 1180.25 C499.57 1177.17 501.62 1174.68 503.06 1170.25 C504.73 1165.95 506.49 1162.1 509.06 1158.25 C509.45 1155.92 509.79 1153.59 510.06 1151.25 C510.39 1151.25 510.72 1151.25 511.06 1151.25 C511.24 1149.39 511.24 1149.39 511.43 1147.5 C511.67 1145.14 511.9 1143.52 513.07 1141.45 C514.27 1138.78 514.31 1136.85 514.31 1133.92 C514.31 1132.29 514.31 1132.29 514.32 1130.63 C514.31 1129.43 514.31 1128.23 514.3 1127 C514.31 1125.73 514.31 1124.45 514.31 1123.14 C514.32 1119.58 514.31 1116.02 514.31 1112.46 C514.3 1108.6 514.31 1104.73 514.31 1100.87 C514.32 1094.09 514.31 1087.31 514.31 1080.53 C514.3 1070.45 514.3 1060.37 514.3 1050.3 C514.31 1033.34 514.31 1016.39 514.3 999.43 C514.29 982.64 514.28 965.85 514.28 949.05 C514.28 948.01 514.28 946.97 514.28 945.89 C514.28 941.66 514.28 937.42 514.28 933.19 C514.29 893.43 514.28 853.68 514.26 813.93 C514.25 778.59 514.24 743.24 514.24 707.89 C514.24 705.62 514.24 703.36 514.24 701.09 C514.24 699.96 514.24 698.84 514.24 697.69 C514.24 692.04 514.24 686.39 514.24 680.74 C514.24 679.07 514.24 679.07 514.24 677.37 C514.24 647.86 514.24 618.36 514.23 588.85 C514.23 587.28 514.23 587.28 514.23 585.68 C514.23 581.46 514.23 577.24 514.23 573.02 C514.22 558.32 514.22 543.62 514.22 528.92 C514.22 509.99 514.22 491.05 514.21 472.11 C514.2 462.09 514.2 452.06 514.2 442.04 C514.2 435.35 514.2 428.67 514.19 421.98 C514.19 418.17 514.19 414.35 514.19 410.54 C514.19 406.44 514.19 402.34 514.18 398.24 C514.19 397.04 514.19 395.84 514.19 394.6 C514.19 393.52 514.18 392.43 514.18 391.32 C514.18 390.38 514.18 389.44 514.18 388.48 C514.2 386.21 514.2 386.21 513.06 384.25 C442.06 384.21 371.06 384.18 300.06 384.16 C299.01 384.16 297.96 384.16 296.88 384.16 C274.06 384.16 251.25 384.15 228.43 384.15 C217.24 384.14 206.06 384.14 194.87 384.14 C193.75 384.14 192.64 384.14 191.49 384.14 C155.37 384.13 119.25 384.11 83.13 384.09 C46.03 384.08 8.93 384.06 -28.17 384.06 C-33.41 384.06 -38.64 384.06 -43.88 384.06 C-44.91 384.06 -45.94 384.06 -47 384.06 C-63.62 384.05 -80.24 384.05 -96.85 384.03 C-113.54 384.02 -130.23 384.02 -146.91 384.02 C-156.84 384.02 -166.77 384.02 -176.69 384.01 C-183.31 384 -189.93 384 -196.55 384 C-200.33 384.01 -204.11 384.01 -207.89 384 C-211.95 383.99 -216 383.99 -220.06 384 C-221.25 384 -222.44 383.99 -223.67 383.99 C-224.74 383.99 -225.81 383.99 -226.92 384 C-228.31 384 -228.31 384 -229.74 384 C-232.15 384.04 -232.15 384.04 -233.94 386.25 Z M551.06 1207.25 C552.06 1209.25 552.06 1209.25 552.06 1209.25 Z M544.06 1214.25 C544.39 1215.24 544.72 1216.23 545.06 1217.25 C545.72 1216.92 546.38 1216.59 547.06 1216.25 C547.06 1215.59 547.06 1214.93 547.06 1214.25 C546.07 1214.25 545.08 1214.25 544.06 1214.25 Z M541.06 1217.25 C541.06 1218.24 541.06 1219.23 541.06 1220.25 C542.05 1219.92 543.04 1219.59 544.06 1219.25 C543.73 1218.59 543.4 1217.93 543.06 1217.25 C542.4 1217.25 541.74 1217.25 541.06 1217.25 Z M536.06 1224.25 C536.39 1225.24 536.72 1226.23 537.06 1227.25 C537.72 1226.92 538.38 1226.59 539.06 1226.25 C539.06 1225.59 539.06 1224.93 539.06 1224.25 C538.07 1224.25 537.08 1224.25 536.06 1224.25 Z M535.06 1227.25 C535.06 1228.24 535.06 1229.23 535.06 1230.25 C535.72 1229.59 536.38 1228.93 537.06 1228.25 C536.4 1227.92 535.74 1227.59 535.06 1227.25 Z M511.06 1247.25 C511.06 1248.24 511.06 1249.23 511.06 1250.25 C511.72 1249.92 512.38 1249.59 513.06 1249.25 C512.4 1248.59 511.74 1247.93 511.06 1247.25 Z " fill="#000100" transform="translate(497.9444274902344,-0.2472381591796875)"/>
<path d="M0 0 C6.03 0.51 12.02 1.07 18 2 C18 2.99 18 3.98 18 5 C18.89 5.02 19.77 5.04 20.69 5.06 C24.83 6.24 25.81 7.84 28.12 11.31 C29 13 29 13 29 15 C29.66 15 30.32 15 31 15 C32.42 17.65 33.36 20.07 34 23 C34.17 23.61 34.34 24.23 34.52 24.86 C35.01 27.05 35.13 28.95 35.13 31.19 C35.13 32.02 35.13 32.85 35.13 33.71 C35.13 34.63 35.13 35.54 35.13 36.48 C35.13 37.46 35.13 38.43 35.13 39.44 C35.14 42.73 35.14 46.03 35.13 49.33 C35.14 51.71 35.14 54.08 35.14 56.46 C35.15 61.64 35.15 66.82 35.15 72 C35.14 79.71 35.15 87.42 35.15 95.12 C35.16 109.68 35.17 124.24 35.17 138.8 C35.17 150.04 35.17 161.28 35.17 172.52 C35.17 175.75 35.17 178.98 35.18 182.22 C35.18 183.02 35.18 183.82 35.18 184.65 C35.18 207.26 35.19 229.87 35.19 252.48 C35.19 253.33 35.19 254.18 35.19 255.06 C35.19 259.38 35.19 263.7 35.19 268.03 C35.19 268.88 35.19 269.74 35.19 270.63 C35.19 272.36 35.19 274.1 35.19 275.84 C35.18 302.86 35.19 329.88 35.21 356.9 C35.22 387.24 35.23 417.58 35.23 447.92 C35.23 451.15 35.23 454.38 35.23 457.61 C35.23 458.41 35.23 459.21 35.23 460.03 C35.23 472.86 35.24 485.69 35.24 498.52 C35.25 511.4 35.25 524.29 35.25 537.17 C35.24 544.83 35.24 552.5 35.25 560.16 C35.26 565.87 35.26 571.58 35.25 577.29 C35.25 579.6 35.25 581.92 35.26 584.24 C35.26 587.38 35.26 590.51 35.25 593.65 C35.25 594.56 35.26 595.48 35.26 596.42 C35.26 597.25 35.25 598.08 35.25 598.94 C35.25 599.66 35.25 600.37 35.25 601.11 C35 603 35 603 33 606 C32.61 608.32 32.27 610.66 32 613 C31.34 613 30.68 613 30 613 C29.94 613.74 29.88 614.49 29.81 615.25 C28.74 618.89 27.14 619.96 24 622 C21.69 622.75 21.69 622.75 20 623 C20 623.66 20 624.32 20 625 C16.92 626.76 14.46 627.31 10.94 627.56 C8 627.78 5.81 628.06 3 629 C3 628.34 3 627.68 3 627 C2.36 627.05 1.72 627.09 1.06 627.14 C-6.83 627.47 -10.7 625.99 -16.62 620.62 C-17.41 619.76 -18.19 618.89 -19 618 C-19.87 617.15 -20.73 616.31 -21.62 615.44 C-25.25 611.08 -25.85 605.39 -27 600 C-27.5 598.51 -27.5 598.51 -28 597 C-28.09 595.67 -28.13 594.33 -28.13 593 C-28.13 591.77 -28.13 591.77 -28.13 590.52 C-28.13 589.62 -28.13 588.71 -28.13 587.79 C-28.13 586.83 -28.13 585.87 -28.13 584.88 C-28.14 581.63 -28.14 578.39 -28.13 575.14 C-28.14 572.8 -28.14 570.46 -28.14 568.13 C-28.15 562.35 -28.15 556.58 -28.15 550.81 C-28.14 543.9 -28.15 536.98 -28.15 530.07 C-28.16 515.74 -28.17 501.41 -28.17 487.08 C-28.17 476.01 -28.17 464.95 -28.17 453.88 C-28.17 450.7 -28.17 447.52 -28.18 444.34 C-28.18 443.55 -28.18 442.76 -28.18 441.94 C-28.18 419.69 -28.19 397.43 -28.19 375.18 C-28.19 374.34 -28.19 373.5 -28.19 372.63 C-28.19 368.38 -28.19 364.12 -28.19 359.87 C-28.19 359.02 -28.19 358.18 -28.19 357.31 C-28.19 355.6 -28.19 353.89 -28.19 352.18 C-28.18 325.58 -28.19 298.98 -28.21 272.39 C-28.22 242.52 -28.23 212.66 -28.23 182.8 C-28.23 179.61 -28.23 176.43 -28.23 173.25 C-28.23 172.47 -28.23 171.68 -28.23 170.88 C-28.23 158.25 -28.24 145.62 -28.24 132.99 C-28.25 120.3 -28.25 107.62 -28.25 94.94 C-28.24 88.06 -28.24 81.18 -28.25 74.31 C-28.26 68.02 -28.26 61.73 -28.25 55.45 C-28.25 53.16 -28.25 50.88 -28.26 48.6 C-28.26 45.51 -28.26 42.43 -28.25 39.34 C-28.25 38.44 -28.26 37.54 -28.26 36.62 C-28.26 35.8 -28.25 34.97 -28.25 34.13 C-28.25 33.42 -28.25 32.72 -28.25 31.99 C-27.96 29.66 -27.11 28.06 -26 26 C-25.63 23.97 -25.63 23.97 -25.5 21.94 C-25 18 -25 18 -23 15 C-22.01 15 -21.02 15 -20 15 C-19.9 14.24 -19.79 13.47 -19.69 12.69 C-18.66 8.68 -16.91 7.55 -13.44 5.44 C-12.23 4.73 -12.23 4.73 -11 4 C-10.34 3.34 -9.68 2.68 -9 2 C-6.84 1.59 -6.84 1.59 -4.38 1.38 C-3.15 1.26 -3.15 1.26 -1.9 1.15 C-1.27 1.1 -0.65 1.05 0 1 C0 0.67 0 0.34 0 0 Z M27 615 C28 617 28 617 28 617 Z M22 617 C22 617.99 22 618.98 22 620 C22.66 619.67 23.32 619.34 24 619 C23.34 618.34 22.68 617.68 22 617 Z " fill="#000100" transform="translate(812,462)"/>
<path d="M0 0 C2.04 0.12 4.08 0.24 6.12 0.38 C7.26 0.44 8.4 0.51 9.57 0.59 C14.67 1.2 18.56 2.06 22 6 C23.31 7.06 24.62 8.13 25.94 9.19 C31.39 13.96 33.9 18.67 34.69 25.88 C34.73 26.61 34.78 27.35 34.82 28.12 C34.89 30.09 34.89 30.09 36 32 C36.1 35.02 36.14 38.02 36.13 41.04 C36.13 41.99 36.13 42.94 36.13 43.92 C36.14 47.15 36.14 50.38 36.13 53.61 C36.14 55.93 36.14 58.26 36.14 60.58 C36.15 66.32 36.15 72.06 36.15 77.8 C36.14 84.67 36.15 91.55 36.15 98.42 C36.16 112.67 36.17 126.92 36.17 141.18 C36.17 152.19 36.17 163.2 36.17 174.21 C36.17 177.37 36.17 180.54 36.18 183.7 C36.18 184.49 36.18 185.28 36.18 186.09 C36.18 208.24 36.19 230.39 36.19 252.54 C36.19 253.38 36.19 254.21 36.19 255.08 C36.19 259.31 36.19 263.55 36.19 267.78 C36.19 268.63 36.19 269.47 36.19 270.33 C36.19 272.04 36.19 273.74 36.19 275.44 C36.18 301.9 36.19 328.35 36.21 354.81 C36.22 384.52 36.23 414.24 36.23 443.95 C36.23 447.12 36.23 450.29 36.23 453.46 C36.23 454.24 36.23 455.02 36.23 455.82 C36.23 468.38 36.24 480.93 36.24 493.49 C36.25 506.11 36.25 518.74 36.25 531.36 C36.24 538.2 36.24 545.04 36.25 551.88 C36.26 558.14 36.26 564.4 36.25 570.67 C36.25 572.93 36.25 575.19 36.26 577.46 C36.32 603.82 36.32 603.82 32 614 C31.34 614 30.68 614 30 614 C29.63 614.87 29.63 614.87 29.25 615.77 C27.82 618.32 26.26 619.84 24.06 621.75 C23.37 622.36 22.68 622.98 21.97 623.61 C20 625 20 625 17 625 C17 625.66 17 626.32 17 627 C16.41 627.06 15.82 627.12 15.21 627.18 C14.42 627.27 13.63 627.35 12.81 627.44 C12.04 627.52 11.26 627.6 10.46 627.68 C7.98 627.96 7.98 627.96 5.5 628.57 C-2.31 629.9 -8.82 626.31 -15 622 C-15.84 621.59 -16.69 621.17 -17.56 620.75 C-20.81 618.42 -21.45 616.25 -22.75 612.5 C-23.16 611.36 -23.56 610.21 -23.98 609.03 C-26.12 602.64 -26.12 602.64 -26.13 598.91 C-26.13 598.08 -26.13 597.24 -26.13 596.38 C-26.13 595.45 -26.13 594.53 -26.13 593.58 C-26.13 592.6 -26.13 591.62 -26.13 590.61 C-26.14 587.29 -26.14 583.97 -26.13 580.65 C-26.14 578.25 -26.14 575.86 -26.14 573.47 C-26.15 568.25 -26.15 563.04 -26.15 557.82 C-26.14 550.06 -26.15 542.3 -26.15 534.54 C-26.16 519.88 -26.17 505.22 -26.17 490.56 C-26.17 479.24 -26.17 467.92 -26.17 456.61 C-26.17 453.35 -26.17 450.1 -26.18 446.84 C-26.18 446.03 -26.18 445.22 -26.18 444.39 C-26.18 421.62 -26.19 398.86 -26.19 376.09 C-26.19 375.23 -26.19 374.38 -26.19 373.49 C-26.19 369.14 -26.19 364.79 -26.19 360.43 C-26.19 359.57 -26.19 358.7 -26.19 357.81 C-26.19 356.06 -26.19 354.32 -26.19 352.57 C-26.18 325.36 -26.19 298.15 -26.21 270.94 C-26.22 240.39 -26.23 209.84 -26.23 179.29 C-26.23 176.04 -26.23 172.78 -26.23 169.53 C-26.23 168.73 -26.23 167.93 -26.23 167.1 C-26.23 154.18 -26.24 141.26 -26.24 128.34 C-26.25 115.37 -26.25 102.39 -26.25 89.42 C-26.24 81.7 -26.24 73.99 -26.25 66.27 C-26.26 60.52 -26.26 54.77 -26.25 49.02 C-26.25 46.69 -26.25 44.35 -26.26 42.02 C-26.26 38.86 -26.26 35.7 -26.25 32.54 C-26.25 31.62 -26.26 30.7 -26.26 29.76 C-26.26 28.92 -26.25 28.08 -26.25 27.21 C-26.25 26.49 -26.25 25.77 -26.25 25.02 C-25.96 22.66 -25.16 21.07 -24 19 C-23.69 18.38 -23.38 17.76 -23.06 17.12 C-21.71 14.42 -20.35 11.71 -19 9 C-18.01 9.33 -17.02 9.66 -16 10 C-16 9.01 -16 8.02 -16 7 C-15.03 6.55 -14.06 6.09 -13.06 5.62 C-9.93 4.34 -9.93 4.34 -9 2 C-6.93 1.59 -6.93 1.59 -4.44 1.38 C-3.61 1.3 -2.78 1.23 -1.93 1.15 C-0.98 1.07 -0.98 1.07 0 1 C0 0.67 0 0.34 0 0 Z M26 612 C27.49 612.99 27.49 612.99 29 614 C29 613.34 29 612.68 29 612 C28.01 612 27.02 612 26 612 Z " fill="#000100" transform="translate(458,462)"/>
<path d="M0 0 C2.06 0.11 4.13 0.24 6.19 0.38 C7.34 0.44 8.48 0.51 9.67 0.59 C12.8 0.98 15.15 1.68 18 3 C18 3.66 18 4.32 18 5 C19.32 5 20.64 5 22 5 C25.47 7.96 27.81 11.02 30 15 C30.54 15.89 31.07 16.77 31.62 17.69 C34.35 22.28 34.14 26.13 34.13 31.38 C34.14 32.36 34.14 33.35 34.14 34.37 C34.15 37.73 34.15 41.08 34.15 44.43 C34.15 46.85 34.15 49.26 34.16 51.67 C34.17 57.63 34.17 63.6 34.17 69.56 C34.18 76.69 34.19 83.83 34.19 90.97 C34.22 108.22 34.23 125.47 34.23 142.73 C34.24 150.89 34.24 159.05 34.25 167.2 C34.27 195.12 34.28 223.04 34.29 250.96 C34.29 252.72 34.29 254.47 34.29 256.22 C34.29 257.09 34.29 257.96 34.29 258.86 C34.29 263.27 34.29 267.67 34.3 272.08 C34.3 273.39 34.3 273.39 34.3 274.73 C34.3 303.08 34.33 331.43 34.36 359.79 C34.39 389.75 34.41 419.71 34.42 449.68 C34.42 452.96 34.42 456.25 34.42 459.54 C34.42 460.75 34.42 460.75 34.42 461.99 C34.42 475.03 34.44 488.07 34.46 501.11 C34.48 514.22 34.48 527.32 34.47 540.43 C34.47 548.21 34.47 556 34.5 563.79 C34.51 569.6 34.51 575.41 34.49 581.22 C34.49 583.58 34.49 585.93 34.51 588.29 C34.52 591.48 34.51 594.67 34.49 597.87 C34.51 598.79 34.52 599.71 34.53 600.65 C34.43 609.43 31.13 615.73 25 622 C18.85 626.97 11.82 629.48 3.88 628.69 C2.93 628.46 1.98 628.23 1 628 C-0.46 627.8 -1.91 627.61 -3.38 627.44 C-4.57 627.29 -5.77 627.15 -7 627 C-7 626.34 -7 625.68 -7 625 C-7.91 624.92 -8.82 624.84 -9.75 624.75 C-13.46 623.89 -14.5 622.76 -17 620 C-17.99 619.67 -18.98 619.34 -20 619 C-21.45 616.1 -22 614.26 -22 611 C-22.99 611 -23.98 611 -25 611 C-25.13 610.25 -25.27 609.5 -25.4 608.73 C-25.58 607.75 -25.76 606.76 -25.94 605.75 C-26.11 604.78 -26.29 603.8 -26.46 602.8 C-26.94 600.13 -26.94 600.13 -27.53 598.08 C-28.01 595.94 -28.12 594.07 -28.12 591.87 C-28.13 591.05 -28.13 590.23 -28.13 589.39 C-28.13 588.49 -28.13 587.59 -28.12 586.67 C-28.12 585.23 -28.12 585.23 -28.13 583.76 C-28.13 580.52 -28.12 577.27 -28.12 574.03 C-28.12 571.69 -28.12 569.36 -28.12 567.02 C-28.12 561.25 -28.12 555.48 -28.12 549.71 C-28.11 542.81 -28.11 535.9 -28.11 529 C-28.12 516.25 -28.11 503.5 -28.11 490.76 C-28.1 478.13 -28.1 465.51 -28.09 452.89 C-28.09 452.1 -28.09 451.32 -28.09 450.51 C-28.09 446.53 -28.09 442.54 -28.09 438.56 C-28.09 410.33 -28.08 382.1 -28.08 353.88 C-28.07 326.45 -28.06 299.03 -28.05 271.6 C-28.05 270.76 -28.05 269.91 -28.05 269.04 C-28.05 260.55 -28.05 252.07 -28.05 243.58 C-28.05 226.29 -28.05 209 -28.04 191.71 C-28.04 190.92 -28.04 190.12 -28.04 189.3 C-28.03 136.2 -28.02 83.1 -28 30 C-27.34 30 -26.68 30 -26 30 C-26 26.7 -26 23.4 -26 20 C-25.34 20 -24.68 20 -24 20 C-23.92 19.26 -23.84 18.51 -23.75 17.75 C-22.85 14.44 -21.46 13.32 -19 11 C-17.76 8.87 -17.76 8.87 -17 7 C-15.68 7 -14.36 7 -13 7 C-13 6.34 -13 5.68 -13 5 C-9.46 1.16 -4.9 1.3 0 1 C0 0.67 0 0.34 0 0 Z M27 612 C27.33 612.99 27.66 613.98 28 615 C28.66 614.67 29.32 614.34 30 614 C30 613.34 30 612.68 30 612 C29.01 612 28.02 612 27 612 Z M24 615 C23.67 615.99 23.34 616.98 23 618 C23.99 618 24.98 618 26 618 C26 617.01 26 616.02 26 615 C25.34 615 24.68 615 24 615 Z M19 620 C19 620.99 19 621.98 19 623 C19.99 622.67 20.98 622.34 22 622 C21.67 621.34 21.34 620.68 21 620 C20.34 620 19.68 620 19 620 Z " fill="#000100" transform="translate(635,462)"/>
<path d="M0 0 C0.33 0 0.66 0 1 0 C1 244.53 1 489.06 1 741 C0.67 741 0.34 741 0 741 C0 496.47 0 251.94 0 0 Z " fill="#FBFDFD" transform="translate(1075,384)"/>
<path d="M0 0 C0.33 0 0.66 0 1 0 C1 241.56 1 483.12 1 732 C0.67 732 0.34 732 0 732 C0 490.44 0 248.88 0 0 Z " fill="#FBFDFD" transform="translate(265,386)"/>
<path d="M0 0 C0.33 0 0.66 0 1 0 C1 188.76 1 377.52 1 572 C0.67 572 0.34 572 0 572 C0 383.24 0 194.48 0 0 Z " fill="#FBFDFD" transform="translate(670,491)"/>
<path d="M0 0 C86.46 0 172.92 0 262 0 C262 0.33 262 0.66 262 1 C175.54 1 89.08 1 0 1 C0 0.67 0 0.34 0 0 Z " fill="#FBFDFD" transform="translate(509,60)"/>
<path d="M0 0 C0.33 0 0.66 0 1 0 C1 1.98 1 3.96 1 6 C0.67 6 0.34 6 0 6 C0 4.02 0 2.04 0 0 Z " fill="#FBFDFD" transform="translate(1160,272)"/>
<path d="M0 0 C0.33 0 0.66 0 1 0 C1 1.98 1 3.96 1 6 C0.67 6 0.34 6 0 6 C0 4.02 0 2.04 0 0 Z " fill="#FBFDFD" transform="translate(890,95)"/>
<path d="" fill="#FBFDFD" transform="translate(0,0)"/>
<path d="M0 0 C3 1 3 1 3 1 Z " fill="#FBFDFD" transform="translate(819,1090)"/>
<path d="M0 0 C3 1 3 1 3 1 Z " fill="#FBFDFD" transform="translate(811,1090)"/>
<path d="" fill="#FBFDFD" transform="translate(0,0)"/>
<path d="M0 0 C0.33 0.66 0.66 1.32 1 2 C0.34 1.67 -0.32 1.34 -1 1 C-0.67 0.67 -0.34 0.34 0 0 Z " fill="#000100" transform="translate(200,228)"/>
<path d="M0 0 C2 1 2 1 2 1 Z " fill="#FBFDFD" transform="translate(962,1275)"/>
<path d="M0 0 C2 1 2 1 2 1 Z " fill="#000100" transform="translate(309,1203)"/>
<path d="M0 0 C2 1 2 1 2 1 Z " fill="#FBFDFD" transform="translate(634,1090)"/>
<path d="M0 0 C2 1 2 1 2 1 Z " fill="#FBFDFD" transform="translate(466,1090)"/>
<path d="M0 0 C2 1 2 1 2 1 Z " fill="#FBFDFD" transform="translate(457,1090)"/>
<path d="" fill="#000100" transform="translate(0,0)"/>
<path d="M0 0 C2 1 2 1 2 1 Z " fill="#000100" transform="translate(1074,309)"/>
<path d="" fill="#000100" transform="translate(0,0)"/>
<path d="" fill="#FBFDFD" transform="translate(0,0)"/>
<path d="" fill="#7D7C7B" transform="translate(0,0)"/>
<path d="" fill="#7D7C7B" transform="translate(0,0)"/>
<path d="" fill="#7D7C7B" transform="translate(0,0)"/>
<path d="" fill="#FBFDFD" transform="translate(0,0)"/>
<path d="" fill="#000100" transform="translate(0,0)"/>
<path d="" fill="#7D7C7B" transform="translate(0,0)"/>
<path d="" fill="#000100" transform="translate(0,0)"/>
<path d="" fill="#000100" transform="translate(0,0)"/>
<path d="" fill="#000100" transform="translate(0,0)"/>
<path d="" fill="#000100" transform="translate(0,0)"/>
<path d="" fill="#000100" transform="translate(0,0)"/>
<path d="" fill="#000100" transform="translate(0,0)"/>
<path d="" fill="#000100" transform="translate(0,0)"/>
<path d="" fill="#000100" transform="translate(0,0)"/>
<path d="" fill="#000100" transform="translate(0,0)"/>
<path d="" fill="#000100" transform="translate(0,0)"/>
<path d="" fill="#000100" transform="translate(0,0)"/>
<path d="" fill="#000100" transform="translate(0,0)"/>
<path d="" fill="#FBFDFD" transform="translate(0,0)"/>
<path d="" fill="#000100" transform="translate(0,0)"/>
<path d="" fill="#000100" transform="translate(0,0)"/>
<path d="" fill="#FBFDFD" transform="translate(0,0)"/>
<path d="" fill="#7D7C7B" transform="translate(0,0)"/>
<path d="" fill="#000100" transform="translate(0,0)"/>
<path d="" fill="#7D7C7B" transform="translate(0,0)"/>
<path d="" fill="#000100" transform="translate(0,0)"/>
<path d="" fill="#000100" transform="translate(0,0)"/>
<path d="" fill="#7D7C7B" transform="translate(0,0)"/>
<path d="" fill="#000100" transform="translate(0,0)"/>
<path d="" fill="#000100" transform="translate(0,0)"/>
<path d="" fill="#000100" transform="translate(0,0)"/>
<path d="" fill="#000100" transform="translate(0,0)"/>
<path d="" fill="#000100" transform="translate(0,0)"/>
<path d="" fill="#000100" transform="translate(0,0)"/>
<path d="" fill="#000100" transform="translate(0,0)"/>
<path d="" fill="#FBFDFD" transform="translate(0,0)"/>
<path d="" fill="#7D7C7B" transform="translate(0,0)"/>
<path d="" fill="#7D7C7B" transform="translate(0,0)"/>
<path d="" fill="#000100" transform="translate(0,0)"/>
<path d="" fill="#000100" transform="translate(0,0)"/>
<path d="" fill="#000100" transform="translate(0,0)"/>
<path d="" fill="#000100" transform="translate(0,0)"/>
<path d="" fill="#000100" transform="translate(0,0)"/>
<path d="" fill="#000100" transform="translate(0,0)"/>
<path d="" fill="#000100" transform="translate(0,0)"/>
<path d="" fill="#000100" transform="translate(0,0)"/>
<path d="" fill="#000100" transform="translate(0,0)"/>
<path d="" fill="#7D7C7B" transform="translate(0,0)"/>
<path d="" fill="#000100" transform="translate(0,0)"/>
<path d="" fill="#7D7C7B" transform="translate(0,0)"/>
<path d="" fill="#FBFDFD" transform="translate(0,0)"/>
<path d="" fill="#000100" transform="translate(0,0)"/>
<path d="" fill="#000100" transform="translate(0,0)"/>
<path d="" fill="#000100" transform="translate(0,0)"/>
<path d="" fill="#000100" transform="translate(0,0)"/>
<path d="" fill="#000100" transform="translate(0,0)"/>
<path d="" fill="#000100" transform="translate(0,0)"/>
<path d="" fill="#000100" transform="translate(0,0)"/>
<path d="" fill="#000100" transform="translate(0,0)"/>
<path d="" fill="#000100" transform="translate(0,0)"/>
<path d="" fill="#000100" transform="translate(0,0)"/>
<path d="" fill="#000100" transform="translate(0,0)"/>
<path d="" fill="#000100" transform="translate(0,0)"/>
<path d="" fill="#7D7C7B" transform="translate(0,0)"/>
<path d="" fill="#000100" transform="translate(0,0)"/>
<path d="" fill="#000100" transform="translate(0,0)"/>
<path d="" fill="#7D7C7B" transform="translate(0,0)"/>
<path d="" fill="#000100" transform="translate(0,0)"/>
<path d="" fill="#000100" transform="translate(0,0)"/>
<path d="" fill="#000100" transform="translate(0,0)"/>
<path d="" fill="#000100" transform="translate(0,0)"/>
<path d="" fill="#000100" transform="translate(0,0)"/>
<path d="" fill="#000100" transform="translate(0,0)"/>
<path d="" fill="#000100" transform="translate(0,0)"/>
<path d="" fill="#000100" transform="translate(0,0)"/>
<path d="" fill="#000100" transform="translate(0,0)"/>
<path d="" fill="#000100" transform="translate(0,0)"/>
<path d="" fill="#000100" transform="translate(0,0)"/>
<path d="" fill="#000100" transform="translate(0,0)"/>
<path d="" fill="#000100" transform="translate(0,0)"/>
</svg>
